<svg width="171" height="93" viewBox="0 0 171 93" xmlns="http://www.w3.org/2000/svg"><title>character</title><defs><linearGradient x1=".054%" y1="50.12%" x2="100.065%" y2="50.12%" id="a"><stop stop-color="#EDBDAA" offset="0%"/><stop stop-color="#F2C3B0" offset="53.61%"/><stop stop-color="#FCCBBA" offset="100%"/></linearGradient><linearGradient x1=".044%" y1="50.009%" x2="100.091%" y2="50.009%" id="b"><stop stop-color="#EDBDAA" offset="0%"/><stop stop-color="#F2C3B0" offset="53.61%"/><stop stop-color="#FCCBBA" offset="100%"/></linearGradient><linearGradient x1="9.518%" y1="49.796%" x2="99.599%" y2="55.119%" id="c"><stop stop-color="#EDBDAA" offset="0%"/><stop stop-color="#F2C3B0" offset="53.61%"/><stop stop-color="#FCCBBA" offset="100%"/></linearGradient><linearGradient x1="87.338%" y1="49.452%" x2=".746%" y2="56.998%" id="d"><stop stop-color="#EDBDAA" offset="0%"/><stop stop-color="#F2C3B0" offset="53.61%"/><stop stop-color="#FCCBBA" offset="100%"/></linearGradient><linearGradient x1="99.909%" y1="50.128%" x2="-.101%" y2="50.128%" id="e"><stop stop-color="#EDBDAA" offset="0%"/><stop stop-color="#F2C3B0" offset="53.61%"/><stop stop-color="#FCCBBA" offset="100%"/></linearGradient><linearGradient x1="-.419%" y1="49.916%" x2="100.225%" y2="49.916%" id="f"><stop stop-color="#EDBDAA" offset="0%"/><stop stop-color="#F2C3B0" offset="53.61%"/><stop stop-color="#FCCBBA" offset="100%"/></linearGradient><linearGradient x1=".257%" y1="50.409%" x2="100.03%" y2="50.409%" id="g"><stop stop-color="#EDBDAA" offset="0%"/><stop stop-color="#F2C3B0" offset="53.61%"/><stop stop-color="#FCCBBA" offset="100%"/></linearGradient><linearGradient x1=".03%" y1="50.409%" x2="99.803%" y2="50.409%" id="h"><stop stop-color="#EDBDAA" offset="0%"/><stop stop-color="#F2C3B0" offset="53.61%"/><stop stop-color="#FCCBBA" offset="100%"/></linearGradient><linearGradient x1=".035%" y1="50.211%" x2="99.809%" y2="50.211%" id="i"><stop stop-color="#EDBDAA" offset="0%"/><stop stop-color="#F2C3B0" offset="53.61%"/><stop stop-color="#FCCBBA" offset="100%"/></linearGradient><linearGradient x1=".262%" y1="50.211%" x2="100.035%" y2="50.211%" id="j"><stop stop-color="#EDBDAA" offset="0%"/><stop stop-color="#F2C3B0" offset="53.61%"/><stop stop-color="#FCCBBA" offset="100%"/></linearGradient><linearGradient x1="100.253%" y1="49.936%" x2="-.392%" y2="49.936%" id="k"><stop stop-color="#EDBDAA" offset="0%"/><stop stop-color="#F2C3B0" offset="53.61%"/><stop stop-color="#FCCBBA" offset="100%"/></linearGradient><linearGradient x1="100.301%" y1="50.409%" x2=".528%" y2="50.409%" id="l"><stop stop-color="#EDBDAA" offset="0%"/><stop stop-color="#F2C3B0" offset="53.61%"/><stop stop-color="#FCCBBA" offset="100%"/></linearGradient><linearGradient x1="99.848%" y1="50.409%" x2=".074%" y2="50.409%" id="m"><stop stop-color="#EDBDAA" offset="0%"/><stop stop-color="#F2C3B0" offset="53.61%"/><stop stop-color="#FCCBBA" offset="100%"/></linearGradient><linearGradient x1="100.074%" y1="50.409%" x2=".301%" y2="50.409%" id="n"><stop stop-color="#EDBDAA" offset="0%"/><stop stop-color="#F2C3B0" offset="53.61%"/><stop stop-color="#FCCBBA" offset="100%"/></linearGradient></defs><g transform="translate(1)" fill="none" fill-rule="evenodd"><path d="M167.396 101.114H146.21c-1.123 0-2.042-.92-2.042-2.045V82.046c0-1.125.92-2.045 2.042-2.045h21.186c1.124 0 2.042.92 2.042 2.045V99.07c0 1.124-.918 2.044-2.042 2.044z" fill="url(#a)"/><path d="M61.62 136.796H50.182c-13.273-2.2-38.8-15.08-38.8-40.998L8.27 65.178c0-25.918 19.91-47.082 44.21-47.082h9.292c24.3 0 44.21 21.164 44.21 47.08L102.46 95.8c.05 25.917-16.49 32.972-40.84 40.998z" fill="url(#b)" transform="translate(27.057)"/><path d="M35.634 58.532S26.138 20.5 46.967 23.772c0 0 53.093-51.12 73.003-3.273 0 0 13.477-6.135 13.477 38.032 0 0-31.498-36.295-85.714-21.624 0 0-7.454.358-12.1 21.624z" fill="#020202"/><path d="M2.195.204L.05 20.652c5.36.614 10.21-3.425 10.824-9.048C11.486 5.93 7.607.818 2.194.204z" fill="url(#c)" transform="translate(129.893 66.455)"/><path d="M131.782 69.83L130.2 84.755c3.93.46 7.453-2.505 7.912-6.646.41-4.09-2.4-7.82-6.33-8.28z" fill="#E4B09C"/><path d="M8.526.05l3.012 20.347c-5.36.92-10.364-2.914-11.18-8.537C-.46 6.185 3.164.92 8.525.05z" fill="url(#d)" transform="translate(27.057 66.455)"/><path d="M35.99 69.164l2.196 14.876c-3.88.665-7.555-2.147-8.168-6.236-.613-4.14 2.042-7.975 5.973-8.64z" fill="#E4B09C"/><path d="M78.414 88.13h-31.09c-.306 0-.51-.205-.51-.51V63.387c0-.307.204-.51.51-.51h31.09c.307 0 .51.203.51.51v24.23c0 .256-.254.512-.51.512zM89.952 88.13h31.09c.306 0 .51-.205.51-.51V63.387c0-.307-.204-.51-.51-.51h-31.09c-.306 0-.51.203-.51.51v24.23c0 .256.204.512.51.512z" stroke="#000" stroke-width="1.536" fill="#FFF"/><path d="M46.814 64.513H36.5c-.356 0-.662-.307-.662-.665v-1.33c0-.357.306-.664.663-.664h10.314c.357 0 .663.307.663.665v1.328c0 .358-.306.665-.663.665z" fill="#000"/><path d="M131.61 64.666h-10.313c-.357 0-.663-.307-.663-.665v-1.328c0-.357.306-.664.663-.664h10.313c.357 0 .663.307.663.664v1.33c.05.357-.255.664-.663.664z" fill="#020202"/><path d="M88.063 67.938c-2.553-1.125-5.514-1.125-8.066 0-.408.204-.92.05-1.174-.307-.255-.46-.51-.92-.766-1.43-.204-.41.05-.972.613-1.227 3.42-1.483 7.3-1.483 10.67 0 .56.255.867.818.612 1.227-.255.46-.51.92-.766 1.43-.204.36-.715.46-1.123.308z" fill="#000"/><path d="M2.042 101.268h21.186c1.123 0 2.042-.92 2.042-2.045V82.2c0-1.125-.92-2.045-2.042-2.045H2.042C.92 80.155 0 81.075 0 82.2v17.023c0 1.124.92 2.045 2.042 2.045z" fill="url(#e)"/><ellipse fill="#000" cx="62.844" cy="75.452" rx="5.718" ry="7.463"/><ellipse fill="#000" cx="106.799" cy="75.759" rx="5.718" ry="7.463"/><ellipse fill="#FFF" cx="64.324" cy="76.679" rx="1.327" ry="1.329"/><ellipse fill="#FFF" cx="104.961" cy="76.679" rx="1.327" ry="1.329"/><path d="M148.865 88.283h-2.757c-.766 0-1.378-.613-1.378-1.38V81.33c0-.766.612-1.38 1.378-1.38h2.757c.766 0 1.378.614 1.378 1.38v5.573c0 .767-.612 1.38-1.378 1.38z" stroke="#DDA18A" stroke-width=".5" fill="url(#f)"/><path d="M153.51 92.117h-3.726c-1.02 0-1.89-.818-1.89-1.89v-8.692c0-1.022.87-1.89 1.89-1.89h3.727c1.022 0 1.89.817 1.89 1.89v8.69c0 1.074-.817 1.892-1.89 1.892z" stroke="#DDA18A" stroke-width=".5" fill="url(#g)"/><path d="M157.952 92.117h-3.727c-1.02 0-1.89-.818-1.89-1.89v-8.692c0-1.022.818-1.89 1.89-1.89h3.727c1.02 0 1.89.817 1.89 1.89v8.69c0 1.074-.87 1.892-1.89 1.892z" stroke="#DDA18A" stroke-width=".5" fill="url(#h)"/><path d="M162.393 92.27h-3.726c-1.02 0-1.89-.817-1.89-1.89v-8.69c0-1.024.818-1.893 1.89-1.893h3.726c1.02 0 1.89.818 1.89 1.892v8.69c0 1.073-.87 1.89-1.89 1.89z" stroke="#DDA18A" stroke-width=".5" fill="url(#i)"/><path d="M167.652 92.27h-3.727c-1.02 0-1.89-.817-1.89-1.89v-8.69c0-1.024.818-1.893 1.89-1.893h3.727c1.02 0 1.89.818 1.89 1.892v8.69c0 1.073-.818 1.89-1.89 1.89z" stroke="#DDA18A" stroke-width=".5" fill="url(#j)"/><path d="M20.574 88.437h2.756c.766 0 1.38-.614 1.38-1.38v-5.573c0-.766-.614-1.38-1.38-1.38h-2.756c-.766 0-1.38.614-1.38 1.38v5.572c0 .767.614 1.38 1.38 1.38z" stroke="#DDA18A" stroke-width=".5" fill="url(#k)"/><path d="M15.877 92.117h3.727c1.02 0 1.888-.818 1.888-1.89v-8.692c0-1.022-.816-1.89-1.888-1.89h-3.727c-1.02 0-1.89.817-1.89 1.89v8.69c.052 1.074.87 1.892 1.89 1.892z" stroke="#DDA18A" stroke-width=".5" fill="url(#l)"/><path d="M11.486 92.117h3.727c1.02 0 1.89-.818 1.89-1.89v-8.692c0-1.022-.87-1.89-1.89-1.89h-3.727c-1.02 0-1.888.817-1.888 1.89v8.69c0 1.074.867 1.892 1.888 1.892z" stroke="#DDA18A" stroke-width=".5" fill="url(#m)"/><path d="M6.688 92.117h3.726c1.02 0 1.89-.818 1.89-1.89v-8.692c0-1.022-.818-1.89-1.89-1.89H6.688c-1.02 0-1.89.817-1.89 1.89v8.69c.052 1.074.87 1.892 1.89 1.892z" stroke="#DDA18A" stroke-width=".5" fill="url(#l)"/><path d="M1.94 92.117h3.727c1.02 0 1.89-.818 1.89-1.89v-8.692c0-1.022-.818-1.89-1.89-1.89H1.94c-1.02 0-1.89.817-1.89 1.89v8.69c0 1.074.87 1.892 1.89 1.892z" stroke="#DDA18A" stroke-width=".5" fill="url(#n)"/></g></svg>