<?xml version="1.0" encoding="utf-8"?>
<!-- Generator: Adobe Illustrator 21.1.0, SVG Export Plug-In . SVG Version: 6.00 Build 0)  -->
<svg version="1.1" id="Layer_1" xmlns="http://www.w3.org/2000/svg" xmlns:xlink="http://www.w3.org/1999/xlink" x="0px" y="0px"
	 viewBox="0 0 759 110.221" style="enable-background:new 0 0 759 110.221;" xml:space="preserve">
<style type="text/css">
	.st0{fill:#373737;}
	.st1{fill:#C54E4E;}
</style>
<g>
	<g>
		<path class="st0" d="M255.416,82.972h-11.808V57.658h-20.472v25.313h-11.808V22.491h11.808V47.21h20.472V22.491h11.808V82.972z"/>
		<path class="st0" d="M318.445,22.491l-18.178,35.677v24.804h-11.723V58.168l-18.178-35.677h12.827L294.49,46.87l11.128-24.379
			H318.445z"/>
		<path class="st0" d="M376.801,41.349c0,5.324-1.756,9.741-5.267,13.251c-3.738,3.737-8.637,5.606-14.695,5.606h-11.638v22.765
			h-11.808V22.491h23.445c6.059,0,10.958,1.869,14.695,5.606C375.045,31.609,376.801,36.026,376.801,41.349z M364.994,41.349
			c0-2.492-0.793-4.502-2.378-6.031c-1.586-1.529-3.709-2.293-6.371-2.293h-11.043v16.564h11.043c2.661,0,4.785-0.75,6.371-2.251
			C364.2,45.838,364.994,43.841,364.994,41.349z"/>
		<path class="st0" d="M429.127,82.972h-39.839V22.491h39.839v10.533h-28.032V47.21h23.87v10.533h-23.87v14.696h28.032V82.972z"/>
		<path class="st0" d="M492.411,82.972h-13.676l-11.807-24.125h-8.495v24.125h-11.808V22.491h23.7
			c6.002,0,10.816,1.813,14.441,5.437c3.454,3.455,5.182,7.815,5.182,13.082c0,4.021-1.104,7.475-3.313,10.363
			c-1.983,2.548-4.559,4.389-7.73,5.521L492.411,82.972z M478.14,40.967c0-2.365-0.794-4.281-2.379-5.746
			c-1.586-1.464-3.652-2.196-6.201-2.196h-11.128v15.885h11.128c2.548,0,4.615-0.731,6.201-2.197
			C477.346,45.248,478.14,43.333,478.14,40.967z"/>
		<path class="st0" d="M549.069,82.972h-39.245V22.491h11.808v49.948h27.438V82.972z"/>
		<path class="st0" d="M576.421,82.972h-11.808V22.491h11.808V82.972z"/>
		<path class="st0" d="M647.095,82.972h-13.761l-15.545-27.522l-7.815,9.344v18.178h-11.808V22.491h11.808v26.333l21.321-26.333
			h14.356l-20.047,24.04L647.095,82.972z"/>
		<path class="st0" d="M698.74,82.972h-39.839V22.491h39.839v10.533h-28.031V47.21h23.87v10.533h-23.87v14.696h28.031V82.972z"/>
		<path class="st0" d="M758.457,52.476c0,6.74-0.17,11.157-0.509,13.251c-0.737,4.645-2.605,8.467-5.606,11.468
			c-3.853,3.852-9.175,5.776-15.97,5.776h-21.831V22.491h21.831c6.795,0,12.117,1.926,15.97,5.776
			c3.001,3.002,4.869,6.74,5.606,11.212C758.287,41.519,758.457,45.851,758.457,52.476z M746.65,52.476
			c0-4.87-0.143-8.295-0.425-10.278c-0.34-2.321-1.049-4.133-2.124-5.437c-2.038-2.491-4.983-3.737-8.834-3.737h-8.92v39.415h8.92
			c3.851,0,6.796-1.245,8.834-3.738c1.075-1.302,1.784-3.199,2.124-5.691C746.508,60.915,746.65,57.404,746.65,52.476z"/>
	</g>
	<g>
		<g>
			<path class="st1" d="M128.598,21.297l-10.559-10.559c-5.317-5.317-12.42-8.245-20.001-8.245c-6.474,0-12.599,2.135-17.561,6.07
				c-0.675,0.535-0.74,1.536-0.131,2.145l7.036,7.036c0.488,0.488,1.254,0.558,1.823,0.167c3.36-2.311,6.846-2.706,8.833-2.706
				c2.424,0,7.078,0.587,11.012,4.522l10.559,10.559c3.934,3.934,4.522,8.588,4.522,11.012s-0.587,7.078-4.522,11.012L80.543,91.376
				c-3.934,3.934-8.588,4.522-11.012,4.522c-2.424,0-7.078-0.587-11.012-4.522L47.96,80.817c-3.934-3.934-4.522-8.588-4.522-11.012
				s0.587-7.078,4.522-11.012l10.919-10.919c0.562-0.562,0.562-1.474,0-2.036l-6.954-6.954c-0.562-0.562-1.474-0.562-2.036,0
				L38.971,49.803c-5.317,5.317-8.245,12.42-8.245,20.001c0,7.581,2.928,14.684,8.245,20.002l10.559,10.559
				c5.317,5.317,12.421,8.245,20.002,8.245c7.581,0,14.684-2.928,20.001-8.245L128.598,61.3c5.317-5.317,8.245-12.42,8.245-20.001
				C136.843,33.718,133.915,26.614,128.598,21.297z"/>
		</g>
		<g>
			<path class="st1" d="M30.06,19.728c3.934-3.934,8.588-4.522,11.012-4.522c2.297,0,6.597,0.528,10.39,3.932l0.041-0.041
				l3.038,3.038l13.067,13.067l3.012,3.012l-0.02,0.02l21.003,21.003c0.567,0.567,1.488,0.563,2.051-0.009l6.888-7.006
				c0.556-0.565,0.552-1.473-0.009-2.034L84.093,33.749l-3.033-3.033l0.02-0.02L66.565,16.181l-0.025,0.025l-3.035-3.035
				l-3.934-3.934c-4.918-4.918-11.487-7.626-18.5-7.626c-7.012,0-13.582,2.708-18.5,7.626L10.512,21.297
				c-5.317,5.317-8.246,12.421-8.246,20.001S5.195,55.983,10.512,61.3l5.132,5.132c0.855,0.855,2.323,0.338,2.444-0.865
				c0.375-3.725,1.249-7.343,2.612-10.816c0.211-0.538,0.093-1.149-0.316-1.558l-0.883-0.883c-3.934-3.934-4.522-8.588-4.522-11.012
				s0.587-7.078,4.522-11.012L30.06,19.728z"/>
		</g>
	</g>
</g>
</svg>
