<svg xmlns="http://www.w3.org/2000/svg" viewBox="0 0 49 48">
  <g fill="none" fill-rule="evenodd">
    <path d="M.367 24C.367 10.745 11.172 0 24.5 0s24.133 10.745 24.133 24S37.828 48 24.5 48 .367 37.255.367 24z" fill="#007BB6"/>
    <path d="M18.35 18.968h-5.462V35.31h5.46V18.968zm.36-5.055c-.037-1.603-1.187-2.823-3.056-2.823-1.868 0-3.09 1.22-3.09 2.823 0 1.57 1.186 2.824 3.02 2.824h.034c1.905 0 3.09-1.255 3.09-2.824zM38.044 25.94c0-5.02-2.694-7.356-6.288-7.356-2.9 0-4.198 1.586-4.922 2.7v-2.316h-5.462c.072 1.534 0 16.342 0 16.342h5.462v-9.127c0-.488.035-.975.18-1.325.394-.976 1.293-1.986 2.802-1.986 1.977 0 2.767 1.5 2.767 3.695v8.743h5.46v-9.37z" fill="#FFF"/>
  </g>
</svg>
