<svg width="236" height="58" viewBox="0 0 236 58" version="1.1" xmlns="http://www.w3.org/2000/svg" xmlns:xlink="http://www.w3.org/1999/xlink">
<title>pinch-logo</title>
<desc>Created using Figma</desc>
<g id="Canvas" transform="translate(-1384 -244)">
<g id="pinch-logo">
<g id="Group">
<g id="Vector">
<use xlink:href="#path0_fill" transform="translate(1384 244)" fill="#f93918"/>
</g>
<g id="Vector">
<use xlink:href="#path1_fill" transform="translate(1451.05 251.634)" fill="#f93918"/>
</g>
<g id="Vector">
<use xlink:href="#path2_fill" transform="translate(1495.41 264.763)" fill="#f93918"/>
</g>
<g id="Vector">
<use xlink:href="#path3_fill" transform="translate(1494.7 250.759)" fill="#f93918"/>
</g>
<g id="Vector">
<use xlink:href="#path4_fill" transform="translate(1514.16 263.546)" fill="#f93918"/>
</g>
<g id="Vector">
<use xlink:href="#path5_fill" transform="translate(1552.28 263.596)" fill="#f93918"/>
</g>
<g id="Vector">
<use xlink:href="#path6_fill" transform="translate(1587.2 251.634)" fill="#f93918"/>
</g>
</g>
</g>
</g>
<defs>
<path id="path0_fill" d="M 29.146 0L 20.8837 0L 20.8837 22.7571C 20.8837 24.459 18.9576 25.4315 17.4876 24.5076L 8.31295 18.7697L 2.53443 15.1227L 0.0506887 13.5667C 0 13.5667 0 13.5181 0 13.5181L 0 18.6238L 0 43.6663L 0 45.5141C 1.82896e-16 46.1949 0.354821 46.827 0.963085 47.1674L 17.6397 57.6706C 19.0589 58.5459 20.9344 57.5734 20.9344 55.9687L 20.9344 43.6177L 29.1967 43.6177C 41.7168 43.6177 51.9559 33.7952 51.9559 21.7845C 51.8545 9.82249 41.6154 0 29.146 0Z"/>
<path id="path1_fill" d="M 21.7961 -9.27471e-08L -3.09379e-06 -9.27471e-08L -3.09379e-06 42.9855L 12.6722 42.9855L 12.6722 31.3639L 21.7455 31.3639C 33.708 31.218 39.7399 24.4103 39.7399 15.6576C 39.7906 7.2453 33.8094 -9.27471e-08 21.7961 -9.27471e-08ZM 21.7961 21.1038L 12.7229 21.1038L 12.7229 10.406L 21.7961 10.406C 25.243 10.406 27.1185 12.9832 27.1185 15.8035C 27.1185 18.6725 25.2937 21.1038 21.7961 21.1038Z"/>
<path id="path2_fill" d="M 11.8611 0L -3.09379e-06 0L -3.09379e-06 29.8565L 11.8611 29.8565L 11.8611 0Z"/>
<path id="path3_fill" d="M 6.64022 -1.85494e-07C 3.29477 -1.85494e-07 0 1.89642 0 5.73789C 0 9.48211 3.34546 11.3785 6.64022 11.3785C 9.8843 11.3785 13.2298 9.48211 13.2298 5.73789C 13.2298 1.89642 9.93499 -1.85494e-07 6.64022 -1.85494e-07Z"/>
<path id="path4_fill" d="M 20.9344 0.00157762C 17.589 -0.0470486 13.6353 1.02273 10.9488 4.03755L 10.4419 0.73097L -3.09379e-06 0.73097L -3.09379e-06 31.0737L 11.6584 31.0737L 11.6584 15.1243C 11.6584 11.137 14.2942 9.28918 17.0821 9.28918C 19.2617 9.28918 21.492 10.6021 21.492 14.3463L 21.492 31.1223L 33.2518 31.1223L 33.2518 14.249C 33.3025 3.45404 27.5747 0.0502038 20.9344 0.00157762Z"/>
<path id="path5_fill" d="M 18.3493 22.2708C 13.8887 22.2708 11.5063 19.3046 11.5063 15.998C 11.5063 12.2052 13.9394 9.04447 18.4 9.04447C 20.5289 9.04447 22.303 9.72524 23.8237 11.2326L 30.1598 4.71674C 26.8143 1.50741 22.303 -3.70988e-07 17.741 -3.70988e-07C 8.81984 -3.70988e-07 3.09379e-06 4.86262 3.09379e-06 15.9008C 3.09379e-06 27.2793 8.71846 31.607 17.9438 31.607C 22.6579 31.607 27.2198 29.7106 31.0215 26.4526L 24.2799 19.6936C 22.6579 21.3955 20.5289 22.2708 18.3493 22.2708Z"/>
<path id="path6_fill" d="M 20.3769 11.962C 16.5752 11.962 14.1421 13.1291 11.9118 15.9008L 11.9118 -9.27471e-08L 0 -9.27471e-08L 0 42.9855L 11.8612 42.9855L 11.8612 26.9389C 11.9118 23.3892 14.497 21.7359 16.778 21.7359C 19.1603 21.7359 20.9344 22.7571 21.0865 26.2095L 21.0865 42.9855L 32.7956 42.9855L 32.7956 26.1609C 32.7956 15.9494 26.7636 11.962 20.3769 11.962Z"/>
</defs>
</svg>
