<svg xmlns="http://www.w3.org/2000/svg" fill="none" viewBox="0 0 101 24">
  <g clip-path="url(#a)">
    <path fill="currentColor" fill-rule="evenodd" d="M34.913 12.145c0 3.78 2.932 6.838 7.017 6.838 4.086 0 7.055-3.096 7.055-6.876v-.038c0-3.78-2.931-6.839-7.017-6.839s-7.055 3.097-7.055 6.877v.038zm11.027 0c0 2.28-1.627 4.14-3.972 4.14-2.345 0-4.01-1.899-4.01-4.178v-.038c0-2.28 1.627-4.141 3.972-4.141 2.346 0 4.01 1.9 4.01 4.179v.038zM22.973 6.97v10.41c0 .835.658 1.496 1.49 1.496a1.48 1.48 0 0 0 1.489-1.496v-2.382h1.994c3.037 0 5.474-1.633 5.474-4.782v-.039c0-2.78-1.953-4.703-5.184-4.703h-3.774c-.831 0-1.49.66-1.49 1.496zm5.07 5.365h-2.091v-4.16h2.033c1.49 0 2.418.72 2.418 2.06v.04c0 1.166-.87 2.06-2.36 2.06zm23.299 5.045V6.96c0-.835.657-1.496 1.49-1.496h3.762c3.23 0 5.184 1.924 5.184 4.704v.038c0 3.15-2.437 4.782-5.474 4.782h-1.983v2.392c0 .836-.658 1.496-1.49 1.496s-1.49-.66-1.49-1.496zm2.979-5.055h2.08c1.49 0 2.36-.894 2.36-2.06v-.04c0-1.34-.929-2.06-2.418-2.06H54.32v4.16zm9.502 5.16a8.577 8.577 0 0 0 5.005 1.605c2.873 0 4.89-1.49 4.89-4.145v-.038c0-2.33-1.522-3.305-4.224-4.012-2.303-.592-2.874-.878-2.874-1.757V9.1c0-.65.59-1.165 1.713-1.165.913 0 1.827.324 2.797.898.229.133.457.21.743.21a1.35 1.35 0 0 0 1.37-1.357c0-.573-.324-.974-.647-1.165-1.2-.764-2.607-1.184-4.225-1.184-2.721 0-4.662 1.605-4.662 4.03v.039c0 2.654 1.731 3.4 4.415 4.087 2.226.573 2.683.955 2.683 1.7v.038c0 .783-.723 1.26-1.922 1.26-1.294 0-2.398-.457-3.407-1.202a1.406 1.406 0 0 0-.837-.268 1.35 1.35 0 0 0-1.37 1.356c0 .459.228.879.552 1.108zm18.299 1.391c-4.024 0-6.91-2.987-6.91-6.679v-.037c0-3.692 2.924-6.716 6.947-6.716 4.024 0 6.911 2.987 6.911 6.679v.037a6.644 6.644 0 0 1-1.155 3.73l.56.463c.297.26.52.612.52 1.076 0 .742-.595 1.355-1.34 1.355a1.35 1.35 0 0 1-.95-.39l-.708-.63a7.127 7.127 0 0 1-3.875 1.112zm.391-4.137c-.298-.26-.521-.612-.521-1.076 0-.742.596-1.354 1.34-1.354.392 0 .653.13.95.39l1.435 1.28a4.53 4.53 0 0 0 .354-1.782v-.037c0-2.226-1.64-4.082-3.949-4.082-2.31 0-3.912 1.819-3.912 4.045v.037c0 2.226 1.64 4.082 3.95 4.082.633 0 1.21-.111 1.713-.353l-1.36-1.15zm10.6-9.295a1.48 1.48 0 0 0-1.484 1.5v10.433c0 .837.655 1.5 1.484 1.5h6.122c.752 0 1.349-.604 1.349-1.364 0-.76-.597-1.364-1.349-1.364h-4.621V6.944c0-.838-.673-1.5-1.501-1.5z" clip-rule="evenodd"/>
    <path fill="url(#b)" d="M6.563.875A5.978 5.978 0 0 0 .585 6.853v7.687a2.753 2.753 0 0 0 2.753 2.753h6.45a2.753 2.753 0 0 0 2.752-2.753V6.853A5.978 5.978 0 0 0 6.563.875z"/>
    <path fill="#F98654" d="M5.063 18.798h2.985v2.984a1.492 1.492 0 1 1-2.985 0v-2.984z"/>
  </g>
  <defs>
    <linearGradient id="b" x1="6.573" x2="10.852" y1="3.387" y2="13.048" gradientUnits="userSpaceOnUse">
      <stop stop-color="#F98653"/>
      <stop offset=".594" stop-color="#FF2F6D"/>
      <stop offset="1" stop-color="#FF0D55"/>
    </linearGradient>
    <clipPath id="a">
      <path fill="#fff" d="M0 0h101v24H0z"/>
    </clipPath>
  </defs>
</svg>
