<svg fill="none" xmlns="http://www.w3.org/2000/svg" viewBox="0 0 140 46">
  <path d="M34.448 4.032c1.76 0 2.64.72 2.64 2.16 0 .448-.096 1.008-.288 1.68l-1.152 3.888c-.352 1.184-.784 2.016-1.296 2.496s-1.248.72-2.208.72c-.8 0-1.424-.208-1.872-.624-.416-.416-.816-1.072-1.2-1.968l-.816-1.968c-.256-.608-.528-1.024-.816-1.248-.288-.224-.736-.336-1.344-.336h-1.104l-6.096 21.456a4.981 4.981 0 0 0-.144 1.104c0 .384.048.704.144.96.128.256.304.528.528.816.288.448.432.816.432 1.104 0 .064-.032.224-.096.48-.16.416-.48.72-.96.912-.448.192-1.104.288-1.968.288H5.552c-.672 0-1.2-.112-1.584-.336a1.073 1.073 0 0 1-.528-.96c0-.192.048-.384.144-.576.128-.288.272-.496.432-.624.192-.16.464-.352.816-.576a5.27 5.27 0 0 0 1.2-.96c.32-.352.592-.896.816-1.632l6.048-21.456h-1.104c-.704 0-1.28.112-1.728.336-.448.224-.928.64-1.44 1.248L7.04 12.384c-.736.864-1.456 1.52-2.16 1.968a4.115 4.115 0 0 1-2.208.624c-.736 0-1.312-.192-1.728-.576-.416-.384-.624-.912-.624-1.584 0-.32.048-.672.144-1.056l1.248-4.368c.256-.896.544-1.568.864-2.016.32-.48.768-.816 1.344-1.008.608-.224 1.456-.336 2.544-.336h27.984Zm15.11 6.576c3.68 0 6.624.688 8.832 2.064 2.208 1.344 3.312 3.408 3.312 6.192 0 1.056-.192 2.256-.576 3.6l-1.968 6.624a2.02 2.02 0 0 0-.048.48c0 .512.208.768.624.768.384 0 .704-.16.96-.48.288-.352.48-.528.576-.528.16 0 .288.112.384.336.128.224.192.48.192.768.032.864-.304 1.744-1.008 2.64-.672.896-1.584 1.632-2.736 2.208-1.152.576-2.416.864-3.792.864-1.664 0-3.088-.304-4.272-.912-1.184-.608-2-1.504-2.448-2.688a10.245 10.245 0 0 1-3.408 2.688 9.923 9.923 0 0 1-4.224.912c-1.696 0-3.12-.32-4.272-.96-1.152-.672-2.016-1.52-2.592-2.544a7.14 7.14 0 0 1-.816-3.312c0-.512.048-1.008.144-1.488.512-2.208 1.616-3.872 3.312-4.992 1.728-1.12 3.776-1.68 6.144-1.68 2.656 0 5.264.416 7.824 1.248l1.2-3.168c.416-1.344.624-2.384.624-3.12-.032-.768-.288-1.344-.768-1.728-.48-.384-1.216-.576-2.208-.576.192.512.288 1.04.288 1.584 0 1.184-.448 2.208-1.344 3.072-.896.864-2.176 1.296-3.84 1.296-1.568 0-2.8-.336-3.696-1.008-.864-.704-1.296-1.568-1.296-2.592 0-1.6.896-2.928 2.688-3.984 1.792-1.056 4.528-1.584 8.208-1.584ZM46.87 25.152c-.896 0-1.632.352-2.208 1.056-.544.672-.816 1.408-.816 2.208 0 .512.112.928.336 1.248.256.32.608.48 1.056.48.416 0 .864-.16 1.344-.48.512-.352.88-.864 1.104-1.536l1.008-2.832a10.544 10.544 0 0 0-1.824-.144Zm41.46-14.544c1.409 0 2.529.576 3.36 1.728.865 1.12 1.297 2.656 1.297 4.608 0 1.696-.304 3.52-.912 5.472-1.184 3.936-3.088 7.648-5.712 11.136-2.592 3.488-5.584 6.288-8.976 8.4-3.36 2.112-6.72 3.168-10.08 3.168-1.664 0-3.104-.288-4.32-.864-1.184-.576-2.08-1.344-2.688-2.304-.64-.96-.96-1.984-.96-3.072 0-.48.08-1.008.24-1.584.288-.896.768-1.584 1.44-2.064.672-.48 1.472-.72 2.4-.72 1.472 0 2.672.496 3.6 1.488.96 1.024 1.568 2.416 1.824 4.176 2.048-.096 3.936-.976 5.664-2.64-1.632-.288-2.848-.832-3.648-1.632-.768-.832-1.296-2.112-1.584-3.84l-1.92-11.76c-.096-.608-.24-1.024-.432-1.248-.16-.256-.384-.384-.672-.384-.224 0-.496.112-.816.336-.288.224-.496.336-.624.336-.256 0-.384-.272-.384-.816 0-.448.08-.928.24-1.44.576-1.824 1.648-3.36 3.216-4.608 1.568-1.28 3.392-1.92 5.472-1.92 2.048 0 3.552.608 4.512 1.824.992 1.216 1.632 3.088 1.92 5.616l1.44 10.56c.096.8.384 1.2.864 1.2.576 0 1.248-.512 2.016-1.536.768-1.056 1.52-2.544 2.256-4.464a9.029 9.029 0 0 1-2.208-2.976 8.556 8.556 0 0 1-.768-3.6c0-.992.128-1.888.384-2.688.384-1.28.976-2.24 1.776-2.88.832-.672 1.76-1.008 2.784-1.008ZM107.969.528c1.856 0 3.216.352 4.08 1.056.896.704 1.344 1.664 1.344 2.88 0 .704-.112 1.392-.336 2.064l-7.536 24.48c-.096.384-.144.72-.144 1.008 0 .416.08.752.24 1.008.16.224.384.448.672.672.224.224.384.416.48.576.096.128.112.304.048.528-.16.416-.48.72-.96.912-.48.192-1.216.288-2.208.288H92.704c-.832 0-1.44-.128-1.824-.384-.384-.288-.512-.656-.384-1.104.128-.384.464-.72 1.008-1.008a4.4 4.4 0 0 0 1.2-.912c.32-.352.592-.912.816-1.68l7.296-23.952c.096-.288.144-.528.144-.72 0-.352-.096-.64-.288-.864a3.326 3.326 0 0 0-.672-.672 5.13 5.13 0 0 1-.72-.672c-.128-.192-.144-.448-.048-.768.192-.736 1.2-1.376 3.024-1.92a19.88 19.88 0 0 1 5.712-.816Zm25.834 10.08c1.792 0 3.216.544 4.272 1.632 1.088 1.088 1.632 2.432 1.632 4.032a6.92 6.92 0 0 1-.192 1.68c-.32 1.312-.928 2.32-1.824 3.024-.896.704-1.968 1.056-3.216 1.056-1.216 0-2.144-.288-2.784-.864-.608-.576-1.152-1.344-1.632-2.304-.256-.544-.496-.944-.72-1.2-.224-.256-.48-.384-.768-.384-.32 0-.608.128-.864.384-.224.256-.432.704-.624 1.344l-3.696 12c-.064.16-.096.4-.096.72 0 .416.112.768.336 1.056.256.256.592.512 1.008.768.384.256.64.464.768.624.128.16.176.368.144.624-.064.416-.304.72-.72.912-.384.192-1.056.288-2.016.288h-12.288c-.832 0-1.424-.128-1.776-.384-.384-.288-.528-.656-.432-1.104.128-.384.464-.72 1.008-1.008.48-.256.88-.56 1.2-.912.32-.352.592-.912.816-1.68l4.272-13.872c.064-.16.096-.384.096-.672 0-.352-.08-.624-.24-.816-.128-.192-.352-.432-.672-.72-.32-.256-.544-.48-.672-.672-.128-.192-.144-.448-.048-.768.192-.736 1.2-1.376 3.024-1.92a18.855 18.855 0 0 1 5.712-.864c1.312 0 2.4.304 3.264.912.864.576 1.424 1.408 1.68 2.496 1.536-2.272 3.552-3.408 6.048-3.408Z" fill="#4B158D"/>
</svg>
