<svg fill="none" xmlns="http://www.w3.org/2000/svg" viewBox="0 0 120 25">
  <path fill-rule="evenodd" clip-rule="evenodd" d="M105.517 20.153c3.577 0 6.578-2.456 7.423-5.775a.365.365 0 0 0-.355-.44h-3.089a.361.361 0 0 0-.33.213h-.001a4.013 4.013 0 0 1-3.648 2.346 4.017 4.017 0 0 1-4.013-4.022 4.018 4.018 0 0 1 4.013-4.021c1.62 0 3.013.962 3.648 2.346h.001a.363.363 0 0 0 .33.213h3.089a.365.365 0 0 0 .355-.439c-.845-3.32-3.846-5.776-7.423-5.776-4.23 0-7.662 3.438-7.662 7.677 0 4.24 3.432 7.678 7.662 7.678Zm13.166-14.99v14.258a.365.365 0 0 1-.364.365H115.4a.365.365 0 0 1-.365-.365V5.164h3.648ZM116.859.047a2.191 2.191 0 0 0-2.189 2.193c0 1.212.98 2.194 2.189 2.194a2.191 2.191 0 0 0 2.189-2.194c0-1.21-.98-2.193-2.189-2.193Zm-34.13 10.967a5.478 5.478 0 0 1 5.276-4.021 5.476 5.476 0 0 1 5.274 4.02h-10.55Zm5.276-6.215c-4.232 0-7.663 3.437-7.663 7.677s3.43 7.678 7.663 7.678a7.658 7.658 0 0 0 6.842-4.224.365.365 0 0 0-.325-.53h-1.694c-.12 0-.228.06-.294.151a5.464 5.464 0 0 1-4.53 2.409 5.477 5.477 0 0 1-5.423-4.753h12.71a.365.365 0 0 0 .365-.347 8.13 8.13 0 0 0 .01-.384c0-4.24-3.43-7.677-7.661-7.677ZM77.788.411h-1.46a.365.365 0 0 0-.364.366V19.42c0 .202.163.365.365.365h1.459a.366.366 0 0 0 .365-.365V.777a.366.366 0 0 0-.365-.366ZM73.41 15.4h-1.694a.36.36 0 0 0-.288.143 5.463 5.463 0 0 1-4.535 2.416 5.478 5.478 0 0 1-5.473-5.484 5.478 5.478 0 0 1 5.473-5.483c1.887 0 3.55.958 4.534 2.415a.362.362 0 0 0 .289.144h1.694a.366.366 0 0 0 .325-.53 7.658 7.658 0 0 0-6.842-4.223c-4.232 0-7.662 3.437-7.662 7.677s3.43 7.678 7.662 7.678c2.99 0 5.58-1.72 6.841-4.224a.365.365 0 0 0-.325-.53ZM58.87 4.807c-2.208.104-3.971 1.161-5.113 2.776V5.528c0-.2-.164-.364-.365-.364h-1.46a.365.365 0 0 0-.364.364v13.893c0 .202.163.365.364.365h1.46a.365.365 0 0 0 .365-.365v-6.946a5.479 5.479 0 0 1 5.107-5.47.366.366 0 0 0 .366-.367V5.173c0-.2-.16-.362-.36-.366ZM49.38 19.42V5.164h-2.19V19.42c0 .202.165.365.366.365h1.46a.365.365 0 0 0 .364-.365Zm.365-17.182a1.46 1.46 0 0 1-1.46 1.462 1.46 1.46 0 0 1-1.459-1.462 1.46 1.46 0 1 1 2.918 0ZM44.636 15.4h-1.694a.364.364 0 0 0-.289.144 5.46 5.46 0 0 1-4.534 2.416 5.478 5.478 0 0 1-5.473-5.484 5.478 5.478 0 0 1 5.473-5.483c1.888 0 3.551.958 4.535 2.415a.362.362 0 0 0 .288.144h1.694a.366.366 0 0 0 .326-.53 7.66 7.66 0 0 0-6.843-4.223c-4.232 0-7.663 3.437-7.663 7.677s3.431 7.678 7.663 7.678a7.66 7.66 0 0 0 6.843-4.224.365.365 0 0 0-.326-.53ZM12.077 0C6.266 0 1.388 3.99.016 9.384A.522.522 0 0 0 0 9.505c0 .328.266.594.593.594h5.018a.593.593 0 0 0 .538-.347 6.52 6.52 0 0 1 5.928-3.812c3.601 0 6.522 2.927 6.522 6.535 0 3.609-2.92 6.535-6.522 6.535a6.52 6.52 0 0 1-5.927-3.813l-.001.002a.593.593 0 0 0-.538-.347H.593a.593.593 0 0 0-.593.594c0 .04.006.08.015.118 1.372 5.395 6.25 9.386 12.062 9.386 6.876 0 12.45-5.586 12.45-12.475C24.528 5.585 18.954 0 12.078 0ZM9.113 12.475c0-1.64 1.327-2.97 2.964-2.97a2.967 2.967 0 0 1 2.964 2.97c0 1.64-1.327 2.97-2.964 2.97a2.968 2.968 0 0 1-2.964-2.97Z" fill="white"/>
</svg>
