<svg xmlns="http://www.w3.org/2000/svg" xmlns:xlink="http://www.w3.org/1999/xlink" viewBox="0 0 1541 423">
  <defs>
    <path id="a" d="M-.07 362.015c9 1.638 18.28 2.494 27.74 2.494 84.95.004 153.81-68.777 153.81-153.744.01-84.909-68.85-153.734-153.81-153.737-9.45 0-18.7.855-27.68 2.493l.11-.039C38.15 22.392 90.14-.456 147.41-.454c116.72-.002 211.33 94.565 211.33 211.222C358.73 327.5 264.12 422 147.42 422c-57.25-.007-109.2-22.809-147.25-59.853"/>
    <path id="c" d="M-.47 169.505c4.2.77 8.54 1.171 12.97 1.169 39.73.002 71.93-32.166 71.94-71.906 0-39.71-32.21-71.897-71.94-71.9-4.42-.001-8.75.399-12.95 1.166l.05-.015C17.4 10.671 41.71-.016 68.5-.016c54.59 0 98.83 44.226 98.83 98.786 0 54.592-44.25 98.789-98.83 98.789-26.77 0-51.07-10.665-68.86-27.992"/>
  </defs>
  <g fill="none" fill-rule="evenodd">
    <path d="M16.021 123.491H0V93.833h55.294v48.883h26.363v29.66H55.294v69.756c0 9.338 16.021 8.237 16.021 8.237v29.661c-16.477 6.864-55.294 5.217-55.294-18.951V123.491m139.599 38.997s10.71-21.695 44.216-21.695c0 0 5.767.273 12.632 1.923v29.66s-53.828-4.67-53.828 40.92v37.073h16.024v29.661h-55.295v-99.416c0-3.846-4.763-8.238-14.648-8.238v-29.66c17.025-5.769 50.899-5.219 50.899 19.772m225.603-19.772v98.864c0 3.847 4.763 8.789 14.649 8.789v29.661c-17.301 5.767-50.899 6.041-50.899-20.324 0 0-10.711 23.07-44.217 23.07 0 0-49.707-1.373-49.707-50.257v-60.143h-15.746v-29.66h55.017v83.761c0 33.505 51.631 29.936 51.631 0v-54.101H326.48v-29.66h54.743m122.111-1.65s29.934-.273 43.667 21.972c14.005-23.344 47.509-21.972 47.509-21.972s49.983-.273 49.983 48.335v60.968h14.326v29.661h-53.598v-84.037c0-32.955-51.904-28.838-51.904-1.374v55.75h16.021v29.661h-55.294v-84.313c0-33.504-52.452-28.562-52.452 0v54.652h16.02v29.661h-55.294v-99.14c0-3.573-4.762-8.514-14.649-8.514v-29.66c12.908-3.846 51.451-9.888 51.451 19.223 0 0 10.71-20.873 44.214-20.873m273.252 85.136v-29.936c0-33.502-51.357-29.111-51.357 0v29.936c0 28.836 49.158 35.428 51.357 0Zm39.271-35.702v43.667c-.277 48.334-49.434 48.609-49.434 48.609-22.794 0-35.974-10.709-41.194-16.753v82.664h-53.646v-29.659h14.374V182.537c0-3.845-4.486-10.161-14.374-10.161v-29.66c15.105-4.944 50.902-7.691 50.902 19.497 0-3.844 13.731-21.42 43.389-21.42 0 0 49.706 1.374 49.983 49.707Zm116.669 10.711c0-17.028-11.535-28.561-26.089-28.561-19.501 0-31.31 11.258-31.31 28.561h57.399Zm34.328 23.068h-91.727c0 28.287 30.486 29.385 30.486 29.385 21.696.548 30.756-3.571 43.94-11.532l13.732 23.067c-17.303 11.536-38.449 17.577-60.694 17.577-42.566 0-66.734-34.604-66.734-69.48 0-35.702 24.441-72.503 67.832-72.503 78.819 0 63.165 83.486 63.165 83.486Zm22.966-100.788h-16.021V93.833h55.291v48.883h26.37v29.66h-26.37v69.756c0 9.338 16.02 8.237 16.02 8.237v29.661c-16.47 6.864-55.29 5.217-55.29-18.951V123.491" fill="#00bcd4"/>
    <g transform="translate(1182 1)">
      <mask id="b" fill="#fff">
        <use xlink:href="#a"/>
      </mask>
      <path d="M-.07 362.015c9 1.638 18.28 2.494 27.74 2.494 84.95.004 153.81-68.777 153.81-153.744.01-84.909-68.85-153.734-153.81-153.737-9.45 0-18.7.855-27.68 2.493l.11-.039C38.15 22.392 90.14-.456 147.41-.454c116.72-.002 211.33 94.565 211.33 211.222C358.73 327.5 264.12 422 147.42 422c-57.25-.007-109.2-22.809-147.25-59.853" fill="#00bcd4" mask="url(#b)"/>
    </g>
    <g transform="translate(1129 113)">
      <mask id="d" fill="#fff">
        <use xlink:href="#c"/>
      </mask>
      <path d="M-.47 169.505c4.2.77 8.54 1.171 12.97 1.169 39.73.002 71.93-32.166 71.94-71.906 0-39.71-32.21-71.897-71.94-71.9-4.42-.001-8.75.399-12.95 1.166l.05-.015C17.4 10.671 41.71-.016 68.5-.016c54.59 0 98.83 44.226 98.83 98.786 0 54.592-44.25 98.789-98.83 98.789-26.77 0-51.07-10.665-68.86-27.992" fill="#00bcd4" mask="url(#d)"/>
    </g>
  </g>
</svg>
